#!OML:ASF H:\ManfredETheater\Project 1\Capture day 1\Session 1\subject.ASF
:FULLY-SPECIFIED
:DEGREES
123
root -0.116395 21.1713 -9.46955 -166.1 -4.12216 185.253
lowerback 3.93105 3.57619 4.95171
upperback -4.43285 5.04303 2.02161
thorax -6.58909 2.19899 -1.10864
lowerneck -17.4968 -5.76433 -5.33512
upperneck 12.058 -6.7691 1.7366
head 6.77471 -3.36004 0.675855
rclavicle -6.94752e-014 -1.59028e-014
rhumerus -45.0637 17.1608 -92.5737
rradius 119.088
rwrist -5.3342
rhand -25.0358 6.60402
rfingers 7.12502
rthumb 1.47697 -23.3706
lclavicle -6.94752e-014 -1.59028e-014
lhumerus -81.2008 -15.7008 98.0118
lradius 104.434
lwrist 13.1953
lhand -24.7849 -15.7601
lfingers 7.12502
lthumb 1.71932 14.2128
rfemur 21.3818 0.160561 31.7658
rtibia 9.9172
rfoot 23.9658 0.656099
rtoes -29.0839
lfemur -56.5765 1.05229 -15.657
ltibia 56.2583
lfoot 1.46964 -8.88289
ltoes -11.5803
124
root -0.0907319 21.1105 -10.0005 -165.904 -3.99746 185.315
lowerback 3.25962 3.76533 4.89605
upperback -4.72718 5.23062 1.85851
thorax -6.49447 2.28138 -1.22457
lowerneck -17.412 -5.84098 -5.40772
upperneck 12.4486 -6.88979 1.85814
head 6.8992 -3.41323 0.70896
rclavicle 2.78795e-014 8.34896e-015
rhumerus -45.5408 17.9695 -92.9399
rradius 119.625
rwrist -5.3807
rhand -24.6821 6.42609
rfingers 7.12502
rthumb 1.81856 -23.5459
lclavicle 2.78795e-014 8.34896e-015
lhumerus -82.5764 -15.7298 97.818
lradius 105.23
lwrist 13.5227
lhand -25.0232 -15.5459
lfingers 7.12502
lthumb 1.48916 14.4287
rfemur 22.2211 0.956289 31.861
rtibia 10.0112
rfoot 26.2362 1.01321
rtoes -26.7624
lfemur -56.0964 0.800244 -15.6084
ltibia 52.5224
lfoot 3.20743 -9.32305
ltoes -12.3359
125
root -0.0649418 21.0376 -10.5286 -165.732 -3.81624 185.372
lowerback 2.66728 3.95215 4.81967
upperback -5.02151 5.41835 1.6967
thorax -6.44698 2.36256 -1.33039
lowerneck -17.3563 -5.90256 -5.47426
upperneck 12.8554 -6.99176 1.97318
head 7.0332 -3.45787 0.740143
rclavicle -7.02207e-014 1.27222e-014
rhumerus -46.0483 18.7593 -93.3153
rradius 120.142
rwrist -5.42931
rhand -24.2971 6.2337
rfingers 7.12502
rthumb 2.19043 -23.7348
lclavicle -7.02207e-014 1.27222e-014
lhumerus -83.8954 -15.787 97.6159
lradius 106.035
lwrist 13.8229
lhand -25.2288 -15.322
lfingers 7.12502
lthumb 1.29057 14.6539
rfemur 22.4942 1.55683 31.8749
rtibia 11.3463
rfoot 27.2 1.47364
rtoes -24.6308
lfemur -55.5264 0.550282 -15.511
ltibia 48.8942
lfoot 4.74639 -9.63939
ltoes -13.1381
126
root -0.0393084 20.9524 -11.0538 -165.606 -3.58064 185.426
lowerback 2.16782 4.13168 4.72021
upperback -5.30383 5.60141 1.54596
thorax -6.44349 2.44128 -1.41589
lowerneck -17.3285 -5.94704 -5.54416
upperneck 13.2672 -7.07012 2.08515
head 7.17315 -3.4917 0.772808
rclavicle -5.69518e-014 -3.02153e-014
rhumerus -46.5724 19.5312 -93.6928
rradius 120.635
rwrist -5.46003
rhand -23.8835 6.06881
rfingers 7.12502
rthumb 2.58991 -23.8952
lclavicle -5.69518e-014 -3.02153e-014
lhumerus -85.141 -15.8597 97.4074
lradius 106.843
lwrist 14.0772
lhand -25.3927 -15.0999
lfingers 7.12502
lthumb 1.13228 14.8768
rfemur 22.3216 2.00897 31.818
rtibia 13.7185
rfoot 26.8904 1.8845
rtoes -23.1495
lfemur -54.889 0.302947 -15.3739
ltibia 45.4967
lfoot 6.00624 -9.7806
ltoes -13.9533
127
root -0.0142914 20.8556 -11.5764 -165.544 -3.29536 185.481
lowerback 1.77293 4.29955 4.60691
upperback -5.56234 5.7764 1.41533
thorax -6.47878 2.51656 -1.47806
lowerneck -17.3359 -5.97657 -5.62506
upperneck 13.68 -7.12452 2.19213
head 7.31924 -3.51495 0.807526
rclavicle -8.39865e-015 1.59028e-014
rhumerus -47.0932 20.2821 -94.0682
rradius 121.095
rwrist -5.4478
rhand -23.4498 5.97309
rfingers 7.12502
rthumb 3.00876 -23.9854
lclavicle -8.39865e-015 1.59028e-014
lhumerus -86.2984 -15.935 97.1951
lradius 107.651
lwrist 14.2646
lhand -25.5098 -14.8867
lfingers 7.12502
lthumb 1.01915 15.0907
rfemur 21.9429 2.31112 31.6827
rtibia 16.6517
rfoot 25.6104 2.1686
rtoes -22.6707
lfemur -54.1915 0.0587199 -15.2025
ltibia 42.4089
lfoot 6.95329 -9.70772
ltoes -14.8239
128
root 0.00968734 20.748 -12.097 -165.56 -2.96782 185.537
lowerback 1.48112 4.45114 4.48121
upperback -5.78499 5.93821 1.31295
thorax -6.54043 2.58728 -1.50935
lowerneck -17.3753 -5.99179 -5.72456
upperneck 14.0763 -7.15303 2.2948
head 7.46541 -3.52695 0.846382
rclavicle 1.06847e-014 -2.42517e-014
rhumerus -47.5968 21.0053 -94.4363
rradius 121.512
rwrist -5.37908
rhand -22.9999 5.97904
rfingers 7.12502
rthumb 3.44318 -23.9729
lclavicle 1.06847e-014 -2.42517e-014
lhumerus -87.3506 -16.0021 96.9818
lradius 108.451
lwrist 14.3772
lhand -25.5691 -14.6828
lfingers 7.12502
lthumb 0.96189 15.2948
rfemur 21.4936 2.46623 31.4587
rtibia 19.867
rfoot 23.6425 2.30342
rtoes -23.2897
lfemur -53.4369 -0.18569 -15.0083
ltibia 39.6951
lfoot 7.61045 -9.41312
ltoes -15.6881
129
root 0.0322785 20.6305 -12.6158 -165.655 -2.60454 185.602
lowerback 1.2873 4.58483 4.35607
upperback -5.97085 6.08545 1.24576
thorax -6.62434 2.65263 -1.50991
lowerneck -17.4262 -5.99405 -5.84818
upperneck 14.4387 -7.15601 2.39225
head 7.60259 -3.52842 0.890806
rclavicle 1.03989e-014 -2.08724e-014
rhumerus -48.0854 21.6829 -94.7991
rradius 121.882
rwrist -5.24626
rhand -22.5278 6.11049
rfingers 7.12502
rthumb 3.89908 -23.8336
lclavicle 1.03989e-014 -2.08724e-014
lhumerus -88.2953 -16.0479 96.7702
lradius 109.24
lwrist 14.4111
lhand -25.5706 -14.5236
lfingers 7.12502
lthumb 0.960477 15.454
rfemur 21.0237 2.50301 31.1563
rtibia 23.2268
rfoot 21.2366 2.28343
rtoes -24.9358
lfemur -52.6311 -0.432261 -14.7888
ltibia 37.3929
lfoot 8.06223 -8.9182
ltoes -16.4158
130
root 0.0532225 20.5036 -13.1334 -165.827 -2.21393 185.677
lowerback 1.17385 4.69968 4.23853
upperback -6.11636 6.21625 1.21444
thorax -6.71618 2.71208 -1.48168
lowerneck -17.4738 -5.98348 -5.99182
upperneck 14.7497 -7.13282 2.47697
head 7.72178 -3.51968 0.938489
rclavicle 5.81072e-014 2.64384e-014
rhumerus -48.5572 22.2917 -95.1586
rradius 122.197
rwrist -5.04465
rhand -22.0319 6.36861
rfingers 7.12502
rthumb 4.37798 -23.5661
lclavicle 5.81072e-014 2.64384e-014
lhumerus -89.1282 -16.065 96.5615
lradius 110.018
lwrist 14.3742
lhand -25.5028 -14.3956
lfingers 7.12502
lthumb 1.02595 15.5817
rfemur 20.5412 2.43153 30.77
rtibia 26.6631
rfoot 18.7111 2.16746
rtoes -27.0836
lfemur -51.7682 -0.680939 -14.5538
ltibia 35.511
lfoot 8.39608 -8.28768
ltoes -16.9127
131
root 0.072514 20.3672 -13.6497 -166.067 -1.81715 185.762
lowerback 1.12811 4.79079 4.1356
upperback -6.22584 6.32341 1.2193
thorax -6.81296 2.76164 -1.42713
lowerneck -17.5001 -5.9606 -6.15807
upperneck 14.9994 -7.08522 2.55641
head 7.81682 -3.5012 0.992691
rclavicle 4.83233e-014 1.92821e-014
rhumerus -49.0207 22.8074 -95.518
rradius 122.453
rwrist -4.77431
rhand -21.504 6.73832
rfingers 7.12502
rthumb 4.88775 -23.1853
lclavicle 4.83233e-014 1.92821e-014
lhumerus -89.8515 -16.0445 96.3602
lradius 110.779
lwrist 14.2774
lhand -25.3508 -14.2923
lfingers 7.12502
lthumb 1.17273 15.6842
rfemur 20.0352 2.25775 30.3068
rtibia 30.149
rfoot 16.3451 1.97403
rtoes -29.2093
lfemur -50.8407 -0.925302 -14.3218
ltibia 34.0283
lfoot 8.71053 -7.61832
ltoes -17.1042
132
root 0.0904338 20.2206 -14.165 -166.37 -1.42806 185.859
lowerback 1.13405 4.85708 4.05712
upperback -6.299 6.40479 1.25769
thorax -6.90379 2.79994 -1.35293
lowerneck -17.4868 -5.92368 -6.33174
upperneck 15.1799 -7.01297 2.61689
head 7.88052 -3.47355 1.04707
rclavicle 6.38161e-014 2.46493e-014
rhumerus -49.4816 23.2028 -95.8814
rradius 122.649
rwrist -4.43846
rhand -20.9412 7.18197
rfingers 7.12502
rthumb 5.43113 -22.7284
lclavicle 6.38161e-014 2.46493e-014
lhumerus -90.463 -15.9823 96.1711
lradius 111.524
lwrist 14.1339
lhand -25.1337 -14.2065
lfingers 7.12502
lthumb 1.38247 15.7688
rfemur 19.4982 1.9943 29.7813
rtibia 33.6732
rfoot 14.3382 1.69573
rtoes -30.8808
lfemur -49.8294 -1.14966 -14.1091
ltibia 32.9045
lfoot 9.08203 -7.02132
ltoes -17.001
133
root 0.107555 20.0628 -14.6786 -166.727 -1.06758 185.975
lowerback 1.18403 4.89396 4.00845
upperback -6.33999 6.45369 1.32813
thorax -6.98809 2.8231 -1.2626
lowerneck -17.4407 -5.8703 -6.49988
upperneck 15.3016 -6.91556 2.65619
head 7.91671 -3.43588 1.09852
rclavicle -6.50088e-015 -1.88845e-014
rhumerus -49.9497 23.4564 -96.2531
rradius 122.786
rwrist -4.04027
rhand -20.3476 7.65034
rfingers 7.12502
rthumb 6.00421 -22.2446
lclavicle -6.50088e-015 -1.88845e-014
lhumerus -90.9566 -15.8733 95.9966
lradius 112.253
lwrist 13.9404
lhand -24.8653 -14.1192
lfingers 7.12502
lthumb 1.64169 15.8542
rfemur 18.9163 1.6411 29.2122
rtibia 37.2352
rfoot 12.6972 1.30735
rtoes -32.0593
lfemur -48.7204 -1.33126 -13.9342
ltibia 32.0896
lfoot 9.53978 -6.60938
ltoes -16.6903
134
root 0.124399 19.8928 -15.1902 -167.133 -0.753189 186.108
lowerback 1.26325 4.8977 3.9893
upperback -6.34928 6.46397 1.42716
thorax -7.05743 2.82814 -1.15774
lowerneck -17.3541 -5.80098 -6.65593
upperneck 15.3659 -6.79654 2.67595
head 7.92436 -3.38937 1.14611
rclavicle 5.05954e-014 7.95139e-015
rhumerus -50.4295 23.5525 -96.6336
rradius 122.869
rwrist -3.58641
rhand -19.7339 8.09313
rfingers 7.12502
rthumb 6.59667 -21.7841
lclavicle 5.05954e-014 7.95139e-015
lhumerus -91.3266 -15.7139 95.844
lradius 112.968
lwrist 13.7146
lhand -24.5602 -14.0139
lfingers 7.12502
lthumb 1.93628 15.957
rfemur 18.2868 1.19723 28.6125
rtibia 40.8363
rfoot 11.3761 0.789537
rtoes -32.7919
lfemur -47.5062 -1.45358 -13.8145
ltibia 31.5455
lfoot 10.1109 -6.4416
ltoes -16.0885
